ply
format ascii 1.0
comment VCGLIB generated
element vertex 32
property float x
property float y
property float z
property float nx
property float ny
property float nz
property uchar red
property uchar green
property uchar blue
property uchar alpha
element face 48
property list uchar int vertex_indices
end_header
20 -0.25 -40 2 -1 -1 255 0 0 255 
20 0.25 -40 1 2 -2 223 45 45 255 
20 -0.25 -39.5 1 -2 2 255 0 0 255 
20 0.25 -39.5 2 1 1 255 0 0 255 
-20 -0.25 -40 -1 -2 -2 255 0 0 255 
-20 0.25 -40 -2 1 -1 255 0 0 255 
-20 -0.25 -39.5 -2 -1 1 255 0 0 255 
-20 0.25 -39.5 -1 2 2 255 0 0 255 
-19.75 -0.25 -40 2 -1 -1 255 0 0 255 
-19.75 0.25 -40 1 2 -2 255 0 0 255 
-19.75 -0.25 40 1 -2 2 255 0 0 255 
-19.75 0.25 40 2 1 1 255 0 0 255 
-20.25 -0.25 -40 -1 -2 -2 255 0 0 255 
-20.25 0.25 -40 -2 1 -1 255 0 0 255 
-20.25 -0.25 40 -2 -1 1 255 0 0 255 
-20.25 0.25 40 -1 2 2 255 0 0 255 
20.25 -0.25 -40 2 -1 -1 255 0 0 255 
20.25 0.25 -40 1 2 -2 255 0 0 255 
20.25 -0.25 40 1 -2 2 255 0 0 255 
20.25 0.25 40 2 1 1 255 0 0 255 
19.75 -0.25 -40 -1 -2 -2 255 0 0 255 
19.75 0.25 -40 -2 1 -1 255 0 0 255 
19.75 -0.25 40 -2 -1 1 255 0 0 255 
19.75 0.25 40 -1 2 2 255 0 0 255 
20 -0.25 39.5 2 -1 -1 255 0 0 255 
20 0.25 39.5 1 2 -2 255 0 0 255 
20 -0.25 40 1 -2 2 255 0 0 255 
20 0.25 40 2 1 1 255 0 0 255 
-20 -0.25 39.5 -1 -2 -2 255 0 0 255 
-20 0.25 39.5 -2 1 -1 255 0 0 255 
-20 -0.25 40 -2 -1 1 255 0 0 255 
-20 0.25 40 -1 2 2 255 0 0 255 
3 0 1 3 
3 0 3 2 
3 2 3 7 
3 2 7 6 
3 6 7 5 
3 6 5 4 
3 4 5 1 
3 4 1 0 
3 2 6 4 
3 2 4 0 
3 7 3 1 
3 7 1 5 
3 8 9 11 
3 8 11 10 
3 10 11 15 
3 10 15 14 
3 14 15 13 
3 14 13 12 
3 12 13 9 
3 12 9 8 
3 10 14 12 
3 10 12 8 
3 15 11 9 
3 15 9 13 
3 16 17 19 
3 16 19 18 
3 18 19 23 
3 18 23 22 
3 22 23 21 
3 22 21 20 
3 20 21 17 
3 20 17 16 
3 18 22 20 
3 18 20 16 
3 23 19 17 
3 23 17 21 
3 24 25 27 
3 24 27 26 
3 26 27 31 
3 26 31 30 
3 30 31 29 
3 30 29 28 
3 28 29 25 
3 28 25 24 
3 26 30 28 
3 26 28 24 
3 31 27 25 
3 31 25 29 
