ply
format ascii 1.0
comment VCGLIB generated
element vertex 168
property float x
property float y
property float z
property float nx
property float ny
property float nz
element face 332
property list uchar int vertex_indices
end_header
-13.57471 42.67376 -64.20953 -3.000001 2.999821 -0.01885308 
-13.57471 28.13535 -64.20953 -3.983994 1.737242 -0.01726007 
-13.57471 44.31466 22.81134 -3.000001 2.98765 0.1167064 
-13.57471 28.13535 22.81134 -4.533827 3.676875 -0.2113953 
13.57469 42.67376 -64.20953 2.999999 2.999645 -0.03770617 
13.5747 28.13536 -64.20953 5.167682 3.36172 -5.854246e-09 
13.57469 44.31467 22.81134 2.898074 2.975836 0.7298154 
13.5747 28.13536 22.81134 3.745488 1.753563 0.8938346 
-24.60207 21.02475 -64.20953 -3.85554 4.127718 -0.07191338 
-31.39727 21.02475 22.81134 -4.67173 2.580312 -0.06608155 
24.60206 21.02477 22.81134 3.738192 4.232207 0.2403285 
24.60206 21.02477 -64.20953 4.803126 3.152906 0 
-38.3271 -13.6531 -64.20953 -5.067044 -0.1871063 -0.1006865 
-38.3271 -13.6531 22.81134 -5.362819 -1.348823 0.4926423 
38.32712 -13.65307 22.81134 5.413965 0.6528485 0.5855746 
38.32712 -13.65307 -64.20953 4.443522 -2.251121 -0.05180008 
-32.1562 -17.48189 -64.20953 -4.550197 -2.622247 -0.03712206 
-32.1562 -24.4831 22.81134 -5.615051 -0.1123838 -0.009735107 
32.15623 -24.48307 22.81134 5.428866 -1.220086 0.2340642 
32.15623 -17.48187 -64.20953 5.224582 -0.7637715 0.003456162 
-33.47575 -24.59249 -64.20953 -5.693138 -0.2176977 -0.008745028 
-33.47575 -31.59369 22.81134 -5.447308 -1.562537 -0.05800021 
33.47578 -31.59367 22.81134 5.644595 -0.2078586 -0.4384387 
33.47578 -24.59247 -64.20953 5.487314 -1.530091 -0.06152438 
-29.88434 -31.26551 -64.20953 -5.133939 -3.073357 -0.1126351 
-29.88434 -38.26672 22.81134 -4.943668 -3.362556 -0.1333011 
29.88437 -38.26669 22.81134 4.91135 -3.249399 -0.7431126 
29.88437 -31.26549 -64.20953 4.986392 -3.304219 -0.1109665 
-22.07272 -42.97065 -64.20953 -4.17299 -3.676827 -2.096205 
-22.07272 -46.14307 22.81134 -4.969743 -3.084142 0.3848684 
22.07275 -46.14305 22.81134 4.331724 -3.749415 -0.01409672 
22.07275 -42.97063 -64.20953 3.507141 -3.818563 -1.083111 
-19.74341 -46.69004 -64.20953 -2.861764 -2.604787 -2.102481 
-19.74341 -56.20731 22.81134 -5.397581 -2.067992 0.8619363 
19.74345 -56.20729 22.81134 4.528004 -2.663573 1.470937 
19.74345 -46.69003 -64.20953 2.882242 -1.679613 -2.586762 
-18.12015 -55.66035 -49.32071 -1.935144 -3.353788 -0.7146468 
-18.12014 -61.13004 22.81134 -1.856038 -2.896946 1.725342 
18.12019 -61.13003 22.81134 3.394181 -3.67637 1.814033 
18.12019 -55.66033 -49.32071 0.9675739 -2.961721 -1.131415 
-13.57471 42.67376 -76.07216 -3.000001 2.995212 -0.1382939 
-13.57471 28.13535 -76.07216 -4.591702 2.542268 0.00715275 
13.57469 42.67376 -76.07216 2.999999 2.997607 -0.06914697 
13.5747 28.13536 -76.07216 4.55764 2.563251 0.01430553 
-24.60207 21.02475 -76.07216 -4.345977 3.669945 0.02573649 
24.60206 21.02477 -76.07216 4.378907 3.651631 0.03001473 
-38.3271 -13.6531 -76.07216 -4.334677 -1.459178 -0.0174061 
38.32712 -13.65307 -76.07216 4.301617 -1.481189 -0.06910509 
-32.1562 -17.48189 -76.07216 -4.459629 -2.024081 -0.06665416 
32.15623 -17.48187 -76.07216 4.490534 -1.988296 -0.01250406 
-33.47575 -24.59249 -76.07216 -5.564888 -0.8742325 -0.02257543 
33.47578 -24.59247 -76.07216 5.548304 -0.9233697 -0.08679675 
-29.88434 -31.26551 -76.07216 -5.070549 -3.184985 -0.1822252 
29.88437 -31.26549 -76.07216 5.06368 -3.184764 -0.213432 
-22.07272 -42.97065 -76.07216 -2.441849 -4.717133 -0.3248204 
22.07275 -42.97063 -76.07216 2.468599 -4.671473 -0.4050017 
-13.57471 39.90501 -116.0178 -3.000001 2.997606 -0.06914697 
-13.57471 27.85783 -116.0178 -4.486988 2.604809 0.0143055 
13.57469 39.90502 -116.0178 2.999999 2.995214 -0.1382939 
13.5747 27.85784 -116.0178 4.450394 2.625392 0.007152763 
-24.60207 21.96566 -116.0178 -4.235442 3.740161 0.03001472 
24.60206 21.96567 -116.0178 4.271001 3.722331 0.02573651 
-38.3271 -12.1303 -116.0178 -4.227318 -1.509983 -0.06910516 
38.32712 -12.13027 -116.0178 4.19257 -1.532987 -0.01740607 
-32.1562 -15.303 -116.0178 -4.343195 -2.031446 -0.01250411 
32.15623 -15.30298 -116.0178 4.374887 -1.991537 -0.06665409 
-33.47575 -21.19517 -116.0178 -5.491605 -0.9219864 -0.08679681 
33.47578 -21.19515 -116.0178 5.473645 -0.9796902 -0.02257539 
-29.88434 -26.72474 -116.0178 -4.926862 -3.398444 -0.2134321 
29.88437 -26.72472 -116.0178 4.922709 -3.400027 -0.1822251 
-22.07272 -36.42416 -116.0178 -2.362682 -4.815752 -0.4050017 
22.07275 -36.42414 -116.0178 2.388895 -4.789269 -0.3248204 
-13.57471 39.90501 -136.959 -3.000001 2.999999 0 
-13.57471 27.85783 -136.959 -4.413802 2.64597 0 
13.57469 39.90502 -136.959 2.999999 3.000001 0 
13.5747 27.85784 -136.959 4.413801 2.645973 0 
-24.60207 21.96566 -136.959 -4.196787 3.766238 0 
24.60206 21.96567 -136.959 4.196784 3.76624 0 
-38.3271 -12.1303 -136.959 -4.154721 -1.547755 0 
38.32712 -12.13027 -136.959 4.154724 -1.547751 0 
-32.1562 -15.303 -136.959 -4.299222 -2.012412 0 
32.15623 -15.30298 -136.959 4.299226 -2.012409 0 
-33.47575 -21.19517 -136.959 -4.604763 -1.433768 -2 
33.47578 -21.19515 -136.959 3.766125 -1.889078 -1 
-29.88434 -26.72474 -136.959 -2.396287 -1.799173 -3 
29.88437 -26.72472 -136.959 2.456102 -1.716618 -3 
-22.07272 -36.42416 -136.959 -0.7788236 -2.627242 -1 
22.07275 -36.42414 -136.959 1.55765 -2.254483 -2 
-13.57471 39.90501 -147.1269 -2 0.9999994 -1 
-13.57471 27.85783 -147.1269 -1.942535 1.76398 -4 
13.57469 39.90502 -147.1269 0.9999994 2 -2 
13.5747 27.85784 -147.1269 2.471267 0.8819913 -2 
-24.60207 21.96566 -147.1269 -2.326591 1.628835 -3 
24.60206 21.96567 -147.1269 1.870195 2.137404 -3 
-38.3271 -12.1303 -147.1269 -1.842152 -1.405259 -3 
38.32712 -12.13027 -147.1269 2.312569 -0.1424943 -3 
-32.1562 -15.303 -147.1269 -2.408903 -0.4522673 -3 
32.15623 -15.30298 -147.1269 1.890322 -1.560143 -3 
-33.47575 -21.19517 -147.1269 -0.9758281 -1.781463 -1 
33.47578 -21.19515 -147.1269 1.951658 -0.5629265 -2 
-13.57471 42.55527 34.06874 -3.000001 2.973404 0.3809953 
-13.57471 28.23046 34.06874 -3.822478 2.878568 -0.06387977 
8.061239 42.55528 34.06874 2.796148 2.982792 1.178439 
8.061244 28.23047 34.06874 3.936761 2.800706 0.4870161 
-34.61299 21.93488 34.06874 -3.858949 2.57037 -0.07575157 
20.59916 24.82679 34.06874 3.596191 3.963879 0.4630116 
-33.1287 -6.580275 34.06874 -5.837123 0.3138354 0.3380976 
32.81367 -6.580252 34.06874 5.693127 0.8517286 0.5689794 
-33.22305 -22.20399 34.06874 -5.754758 0.4736703 0.1580238 
33.91909 -27.77278 34.06874 5.896031 0.5059139 -0.0150092 
-34.5426 -28.49957 34.06874 -5.446694 -0.995391 -0.3027815 
35.23864 -34.06835 34.06874 5.447433 -0.8783357 -0.4632056 
-30.95119 -34.40771 34.06874 -5.234525 -2.872181 0.05622035 
31.64723 -39.9765 34.06874 4.537123 -3.728072 -0.2441403 
-28.33797 -41.38127 34.06874 -3.98087 -4.016452 0.3671087 
23.83561 -46.95007 34.06874 2.911957 -4.658193 1.143247 
-19.74341 -44.25686 34.06874 -3.562812 -4.271666 1.272422 
14.23 -44.25684 34.06874 2.164243 -4.166575 2.156389 
-18.12015 -48.61534 34.06874 -2.205239 -4.14027 1.973282 
12.60674 -48.61533 34.06874 1.444471 -4.423312 2.573354 
-13.57471 38.58752 88.90318 -2.986904 2.988305 0.4864875 
-13.5747 26.64478 88.90318 -3.79942 2.877086 0.342807 
8.061241 38.58752 88.90318 2.999999 2.984436 0.2994581 
8.061245 26.64478 88.90318 3.752666 2.898313 0.1124407 
-37.47002 21.39609 88.90318 -3.628002 2.429557 0.8041264 
20.59916 24.288 88.90318 3.601337 3.986148 0.3213468 
-29.19053 -2.377274 88.90318 -5.734262 -0.02721264 1.005259 
32.81366 -2.377253 88.90318 5.718049 1.034531 0.6667887 
-37.6095 -16.98192 88.90318 -5.602194 1.390409 0.9472712 
32.73317 -20.34718 88.90318 5.75382 0.1475321 0.9846487 
-38.92905 -22.2306 88.90318 -4.954089 -0.9555918 1.229749 
34.05272 -25.59586 88.90318 5.300102 -1.501173 1.406514 
-35.33764 -27.15628 88.90318 -4.735033 -2.825929 1.575229 
30.46132 -30.52154 88.90318 4.411961 -3.297012 1.709478 
-32.72441 -32.97021 88.90318 -3.978815 -3.482531 1.588032 
24.69059 -36.33547 88.90318 2.234069 -4.718925 1.870685 
-22.76603 -36.87049 88.90318 -2.83944 -4.852472 1.635027 
20.32039 -38.17399 88.90318 2.114109 -4.965932 1.708637 
-14.18197 -37.42233 88.90318 -1.461429 -5.364901 1.496889 
12.60674 -37.42232 88.90318 0.7114433 -5.666055 1.55875 
-7.588673 32.63374 140.9535 -2.993453 2.906471 0.7347965 
-7.58867 24.22072 140.9535 -4.559384 2.466419 0.5349364 
8.061243 32.63374 140.9535 2.999999 2.83238 0.9001578 
8.061246 24.22072 140.9535 4.340168 2.568706 0.283778 
-14.33979 20.5233 140.9535 -4.008869 2.661073 1.338618 
14.37145 20.52332 140.9535 4.527287 3.12805 1.073811 
-16.58836 3.776244 140.9535 -3.739981 -2.106446 2.33982 
18.00611 3.776256 140.9535 4.648639 -0.4949984 3.53495 
-10.41746 -1.855204 140.9535 -2.757837 0.4693164 4.056041 
16.08845 -1.855195 140.9535 2.762996 -0.4076655 4.081125 
-11.73701 -5.55262 140.9535 -2.419428 -0.03117365 4.289477 
13.15476 -5.552612 140.9535 2.614814 -0.7595579 4.241382 
-8.145599 -9.022495 140.9535 -2.042467 -1.50212 4.58136 
13.81659 -9.02249 140.9535 1.888008 -1.715403 4.386676 
-5.532372 -13.1181 140.9535 -2.014866 -1.487718 4.559968 
6.004971 -13.11809 140.9535 1.79957 -1.923703 4.41751 
-3.203066 -18.35136 140.9535 -1.644146 -2.096286 4.365518 
3.675669 -18.35136 140.9535 0.9952099 -2.435364 4.199252 
-8.195945 -20.91112 140.9535 -1.209632 -2.349265 3.069027 
2.052408 -20.91111 140.9535 0.1769836 -2.820322 1.969965 
-7.588671 25.85132 156.8107 -1.000001 1.838857 2.786514 
-7.58867 24.22072 156.8107 -2.646953 0.756056 2.099148 
8.061245 25.85133 156.8107 2 0.9194294 1.393257 
8.061246 24.22072 156.8107 2.460472 1.339688 4.268806 
-9.479458 20.52331 156.8107 -2.229063 1.579855 3.54599 
8.534291 20.52331 156.8107 2.557201 0.998087 3.879022 
-9.657161 3.776247 156.8107 -1.870314 -0.8645169 2.69539 
10.91738 3.776254 156.8107 0.913483 -1.835878 1.372309 
3 0 1 3 
3 0 3 2 
3 37 38 119 
3 37 119 118 
3 6 7 5 
3 6 5 4 
3 20 16 48 
3 20 48 50 
3 2 6 4 
3 2 4 0 
3 5 7 10 
3 5 10 11 
3 15 19 49 
3 15 49 47 
3 3 1 8 
3 3 8 9 
3 8 1 41 
3 8 41 44 
3 10 7 103 
3 10 103 105 
3 15 14 18 
3 15 18 19 
3 33 37 118 
3 33 118 116 
3 11 10 14 
3 11 14 15 
3 9 8 12 
3 9 12 13 
3 31 28 54 
3 31 54 55 
3 13 12 16 
3 13 16 17 
3 19 23 51 
3 19 51 49 
3 34 30 115 
3 34 115 117 
3 23 22 26 
3 23 26 27 
3 30 26 113 
3 30 113 115 
3 19 18 22 
3 19 22 23 
3 17 16 20 
3 17 20 21 
3 25 24 28 
3 25 28 29 
3 21 20 24 
3 21 24 25 
3 12 8 44 
3 12 44 46 
3 29 33 116 
3 29 116 114 
3 28 31 35 
3 28 35 32 
3 0 4 42 
3 0 42 40 
3 21 25 112 
3 21 112 110 
3 27 26 30 
3 27 30 31 
3 35 34 38 
3 35 38 39 
3 22 18 109 
3 22 109 111 
3 31 30 34 
3 31 34 35 
3 29 28 32 
3 29 32 33 
3 38 37 36 
3 38 36 39 
3 33 32 36 
3 33 36 37 
3 32 35 39 
3 32 39 36 
3 7 6 102 
3 7 102 103 
3 47 49 65 
3 47 65 63 
3 52 50 66 
3 52 66 68 
3 51 53 69 
3 51 69 67 
3 40 42 58 
3 40 58 56 
3 46 44 60 
3 46 60 62 
3 42 43 59 
3 42 59 58 
3 45 47 63 
3 45 63 61 
3 28 24 52 
3 28 52 54 
3 16 12 46 
3 16 46 48 
3 23 27 53 
3 23 53 51 
3 24 20 50 
3 24 50 52 
3 27 31 55 
3 27 55 53 
3 1 0 40 
3 1 40 41 
3 4 5 43 
3 4 43 42 
3 11 15 47 
3 11 47 45 
3 5 11 45 
3 5 45 43 
3 58 59 75 
3 58 75 74 
3 61 63 79 
3 61 79 77 
3 66 64 80 
3 66 80 82 
3 57 56 72 
3 57 72 73 
3 65 67 83 
3 65 83 81 
3 69 71 87 
3 69 87 85 
3 60 57 73 
3 60 73 76 
3 55 54 70 
3 55 70 71 
3 48 46 62 
3 48 62 64 
3 43 45 61 
3 43 61 59 
3 54 52 68 
3 54 68 70 
3 44 41 57 
3 44 57 60 
3 53 55 71 
3 53 71 69 
3 49 51 67 
3 49 67 65 
3 41 40 56 
3 41 56 57 
3 50 48 64 
3 50 64 66 
3 82 80 96 
3 82 96 98 
3 77 79 95 
3 77 95 93 
3 74 75 91 
3 74 91 90 
3 79 81 97 
3 79 97 95 
3 81 83 99 
3 81 99 97 
3 82 83 85 
3 82 85 84 
3 84 85 87 
3 84 87 86 
3 62 60 76 
3 62 76 78 
3 56 58 74 
3 56 74 72 
3 67 69 85 
3 67 85 83 
3 68 66 82 
3 68 82 84 
3 63 65 81 
3 63 81 79 
3 71 70 86 
3 71 86 87 
3 64 62 78 
3 64 78 80 
3 59 61 77 
3 59 77 75 
3 70 68 84 
3 70 84 86 
3 90 91 89 
3 90 89 88 
3 92 93 95 
3 92 95 94 
3 89 91 93 
3 89 93 92 
3 96 97 99 
3 96 99 98 
3 94 95 97 
3 94 97 96 
3 75 77 93 
3 75 93 91 
3 80 78 94 
3 80 94 96 
3 72 74 90 
3 72 90 88 
3 78 76 92 
3 78 92 94 
3 76 73 89 
3 76 89 92 
3 83 82 98 
3 83 98 99 
3 73 72 88 
3 73 88 89 
3 105 103 123 
3 105 123 125 
3 116 118 138 
3 116 138 136 
3 106 108 128 
3 106 128 126 
3 119 117 137 
3 119 137 139 
3 109 107 127 
3 109 127 129 
3 110 112 132 
3 110 132 130 
3 103 102 122 
3 103 122 123 
3 118 119 139 
3 118 139 138 
3 113 111 131 
3 113 131 133 
3 18 14 107 
3 18 107 109 
3 2 3 101 
3 2 101 100 
3 26 22 111 
3 26 111 113 
3 9 13 106 
3 9 106 104 
3 6 2 100 
3 6 100 102 
3 3 9 104 
3 3 104 101 
3 14 10 105 
3 14 105 107 
3 17 21 110 
3 17 110 108 
3 25 29 114 
3 25 114 112 
3 38 34 117 
3 38 117 119 
3 13 17 108 
3 13 108 106 
3 133 131 151 
3 133 151 153 
3 137 135 155 
3 137 155 157 
3 127 125 145 
3 127 145 147 
3 122 120 140 
3 122 140 142 
3 134 136 156 
3 134 156 154 
3 124 126 146 
3 124 146 144 
3 131 129 149 
3 131 149 151 
3 120 121 141 
3 120 141 140 
3 128 130 150 
3 128 150 148 
3 112 114 134 
3 112 134 132 
3 101 104 124 
3 101 124 121 
3 115 113 133 
3 115 133 135 
3 108 110 130 
3 108 130 128 
3 100 101 121 
3 100 121 120 
3 111 109 129 
3 111 129 131 
3 104 106 126 
3 104 126 124 
3 114 116 136 
3 114 136 134 
3 102 100 120 
3 102 120 122 
3 107 105 125 
3 107 125 127 
3 117 115 135 
3 117 135 137 
3 140 141 161 
3 140 161 160 
3 141 144 164 
3 141 164 161 
3 144 146 166 
3 144 166 164 
3 147 146 148 
3 147 148 149 
3 149 148 150 
3 149 150 151 
3 151 150 152 
3 151 152 153 
3 153 152 154 
3 153 154 155 
3 155 154 156 
3 155 156 157 
3 157 156 158 
3 157 158 159 
3 138 139 159 
3 138 159 158 
3 123 122 142 
3 123 142 143 
3 130 132 152 
3 130 152 150 
3 129 127 147 
3 129 147 149 
3 139 137 157 
3 139 157 159 
3 126 128 148 
3 126 148 146 
3 136 138 158 
3 136 158 156 
3 125 123 143 
3 125 143 145 
3 132 134 154 
3 132 154 152 
3 121 124 144 
3 121 144 141 
3 135 133 153 
3 135 153 155 
3 160 161 163 
3 160 163 162 
3 163 161 164 
3 163 164 165 
3 165 164 166 
3 165 166 167 
3 147 145 165 
3 147 165 167 
3 146 147 167 
3 146 167 166 
3 145 143 163 
3 145 163 165 
3 143 142 162 
3 143 162 163 
3 142 140 160 
3 142 160 162 
