ply
format ascii 1.0
comment VCGLIB generated
element vertex 168
property float x
property float y
property float z
property float nx
property float ny
property float nz
element face 332
property list uchar int vertex_indices
end_header
15.02078 -31.72043 -64.20953 3 -2.999782 -0.02086064 
15.02078 -15.63328 -64.20953 3.983978 -1.737213 -0.01909811 
15.02078 -33.53613 22.81134 3 -2.984939 0.1286855 
15.02078 -15.63328 22.81134 4.533227 -3.675166 -0.2337417 
-15.02078 -31.72043 -64.20953 -3 -2.999565 -0.04172128 
-15.02078 -15.63328 -64.20953 -5.167683 -3.361718 0 
-15.02078 -33.53613 22.81134 -2.879193 -2.97053 0.7964189 
-15.02078 -15.63328 22.81134 -3.707716 -1.753541 0.968587 
27.22286 -7.76521 -64.20953 3.855359 -4.127615 -0.07956637 
34.74195 -7.76521 22.81134 4.670399 -2.579306 -0.0730682 
-27.22286 -7.76521 22.81134 -3.73362 -4.230378 0.2647552 
-27.22286 -7.76521 -64.20953 -4.803127 -3.152904 0 
42.41 30.60678 -64.20953 5.066687 0.1871454 -0.1113973 
42.41 30.60678 22.81134 5.347834 1.345503 0.5406786 
-42.41 30.60678 22.81134 -5.400998 -0.6499209 0.6447954 
-42.41 30.60678 -64.20953 -4.443405 2.251026 -0.05731395 
35.58174 34.84344 -64.20953 4.55006 2.622154 -0.04107263 
35.58174 42.59047 22.81134 5.603643 0.1115058 -0.01233986 
-35.58174 42.59047 22.81134 -5.41995 1.219024 0.2575158 
-35.58174 34.84344 -64.20953 -5.224475 0.7637337 0.003825672 
37.04185 42.71152 -64.20953 5.692947 0.2176279 -0.009670544 
37.04185 50.45855 22.81134 5.443967 1.562238 -0.06393006 
-37.04185 50.45855 22.81134 -5.637396 0.2055931 -0.4835076 
-37.04185 42.71152 -64.20953 -5.487003 1.529942 -0.06806506 
33.06786 50.0954 -64.20953 5.133538 3.073107 -0.1246141 
33.06786 57.84243 22.81134 4.942413 3.361736 -0.1475018 
-33.06786 57.84243 22.81134 -4.899023 3.241093 -0.8187555 
-33.06786 50.0954 -64.20953 -4.986016 3.303957 -0.1227686 
24.42409 63.04747 -64.20953 4.172701 3.67662 -2.106439 
24.42409 66.55783 22.81134 4.95847 3.074717 0.4217091 
-24.42409 66.55783 22.81134 -4.315787 3.72683 -0.02518907 
-24.42409 63.04747 -64.20953 -3.506907 3.818432 -1.091955 
21.84665 67.16307 -64.20953 2.861588 2.555728 -2.187251 
21.84665 77.69418 22.81134 5.369669 2.055558 0.9422875 
-21.84665 77.69418 22.81134 -4.47606 2.618905 1.575544 
-21.84665 67.16307 -64.20953 -2.882061 1.655061 -2.632929 
20.05047 77.08896 -49.32071 1.935023 3.327976 -0.774331 
20.05047 83.14133 22.81134 1.844823 2.816433 1.811068 
-20.05047 83.14133 22.81134 -3.332292 3.615479 1.90122 
-20.05047 77.08896 -49.32071 -0.9675117 2.912063 -1.219216 
15.02078 -31.72043 -76.07216 3 -2.994143 -0.1529441 
15.02078 -15.63328 -76.07216 4.591698 -2.542264 0.00791466 
-15.02078 -31.72043 -76.07216 -3 -2.997072 -0.07647204 
-15.02078 -15.63328 -76.07216 -4.557634 -2.56324 0.01582934 
27.22286 -7.76521 -76.07216 4.345956 -3.669931 0.02847785 
-27.22286 -7.76521 -76.07216 -4.378877 -3.651614 0.03321167 
42.41 30.60678 -76.07216 4.334561 1.459029 -0.01925255 
-42.41 30.60678 -76.07216 -4.301422 1.480881 -0.07645071 
35.58174 34.84344 -76.07216 4.459429 2.023768 -0.07373875 
-35.58174 34.84344 -76.07216 -4.490401 1.988148 -0.01382868 
37.04185 42.71152 -76.07216 5.564602 0.8740953 -0.0249651 
-37.04185 42.71152 -76.07216 -5.547793 0.9230866 -0.09601159 
33.06786 50.0954 -76.07216 5.069462 3.184256 -0.2015381 
-33.06786 50.0954 -76.07216 -5.062234 3.183746 -0.2360182 
24.42409 63.04747 -76.07216 2.44065 4.713373 -0.3587655 
-24.42409 63.04747 -76.07216 -2.467998 4.665269 -0.4470328 
15.02078 -28.65673 -116.0178 3 -2.997072 -0.07647204 
15.02078 -15.32619 -116.0178 4.486981 -2.604801 0.01582932 
-15.02078 -28.65673 -116.0178 -3 -2.994143 -0.1529441 
-15.02078 -15.32619 -116.0178 -4.450391 -2.625386 0.007914669 
27.22286 -8.806349 -116.0178 4.235411 -3.740146 0.03321172 
-27.22286 -8.806349 -116.0178 -4.270983 -3.722314 0.02847784 
42.41 28.92176 -116.0178 4.227127 1.509671 -0.07645068 
-42.41 28.92176 -116.0178 -4.192451 1.532842 -0.0192526 
35.58174 32.43245 -116.0178 4.343065 2.031296 -0.01382868 
-35.58174 32.43245 -116.0178 -4.374685 1.991226 -0.07373875 
37.04185 38.95229 -116.0178 5.491096 0.921701 -0.09601159 
-37.04185 38.95229 -116.0178 -5.47336 0.9795548 -0.0249651 
33.06786 45.07092 -116.0178 4.925419 3.397421 -0.2360182 
-33.06786 45.07092 -116.0178 -4.921618 3.399302 -0.2015381 
24.42409 55.80359 -116.0178 2.362083 4.809547 -0.4470328 
-24.42409 55.80359 -116.0178 -2.387693 4.785511 -0.3587655 
15.02078 -28.65673 -136.959 3 -3 0 
15.02078 -15.32619 -136.959 4.413801 -2.645972 0 
-15.02078 -28.65673 -136.959 -3 -3 0 
-15.02078 -15.32619 -136.959 -4.413802 -2.645972 0 
27.22286 -8.806349 -136.959 4.196785 -3.766239 0 
-27.22286 -8.806349 -136.959 -4.196786 -3.766239 0 
42.41 28.92176 -136.959 4.154722 1.547753 0 
-42.41 28.92176 -136.959 -4.154722 1.547753 0 
35.58174 32.43245 -136.959 4.299224 2.012411 0 
-35.58174 32.43245 -136.959 -4.299224 2.012411 0 
37.04185 38.95229 -136.959 4.604764 1.433766 -2 
-37.04185 38.95229 -136.959 -3.766125 1.889078 -1 
33.06786 45.07092 -136.959 2.396287 1.799172 -3 
-33.06786 45.07092 -136.959 -2.456102 1.716618 -3 
24.42409 55.80359 -136.959 0.7788244 2.627242 -1 
-24.42409 55.80359 -136.959 -1.557649 2.254484 -2 
15.02078 -28.65673 -147.1269 2 -1 -1 
15.02078 -15.32619 -147.1269 1.942534 -1.763981 -4 
-15.02078 -28.65673 -147.1269 -1 -2 -2 
-15.02078 -15.32619 -147.1269 -2.471267 -0.8819905 -2 
27.22286 -8.806349 -147.1269 2.32659 -1.628836 -3 
-27.22286 -8.806349 -147.1269 -1.870196 -2.137403 -3 
42.41 28.92176 -147.1269 1.842153 1.405258 -3 
-42.41 28.92176 -147.1269 -2.312569 0.1424952 -3 
35.58174 32.43245 -147.1269 2.408904 0.4522671 -3 
-35.58174 32.43245 -147.1269 -1.890321 1.560144 -3 
37.04185 38.95229 -147.1269 0.9758288 1.781463 -1 
-37.04185 38.95229 -147.1269 -1.951658 0.5629268 -2 
15.02078 -31.58932 34.06874 3 -2.967558 0.4206252 
15.02078 -15.73852 34.06874 3.822184 -2.877712 -0.07059932 
-8.919993 -31.58932 34.06874 -2.758386 -2.978994 1.282962 
-8.919993 -15.73852 34.06874 -3.917853 -2.800625 0.5286627 
38.30022 -8.772297 34.06874 3.857954 -2.568683 -0.08367401 
-22.79354 -11.97225 34.06874 -3.587039 -3.960196 0.5099844 
36.65783 22.78051 34.06874 5.829027 -0.3153834 0.3718566 
-36.30922 22.78051 34.06874 -5.680929 -0.8511267 0.6267928 
36.76224 40.06858 34.06874 5.736052 -0.4760362 0.1710064 
-37.53239 46.23062 34.06874 -5.889854 -0.506047 -0.01714455 
38.22236 47.03481 34.06874 5.44098 0.9961768 -0.3343065 
-38.9925 53.19685 34.06874 -5.435833 0.8725384 -0.5098568 
34.24837 53.57234 34.06874 5.233275 2.871453 0.06213582 
-35.01852 59.73438 34.06874 -4.523736 3.717058 -0.267822 
31.35676 61.28878 34.06874 3.974062 4.008984 0.4038089 
-26.37474 67.45082 34.06874 -2.885898 4.616129 1.242409 
21.84665 64.47069 34.06874 3.538058 4.252566 1.398017 
-15.74586 64.47069 34.06874 -2.091719 4.121196 2.314319 
20.05047 69.29347 34.06874 2.181789 4.08338 2.124962 
-13.94968 69.29347 34.06874 -1.412317 4.328903 2.722847 
15.02078 -27.19889 88.90318 2.984 -2.985705 0.5376672 
15.02078 -13.98392 88.90318 3.797234 -2.874571 0.3788269 
-8.919993 -27.19889 88.90318 -3 -2.98098 0.3309483 
-8.919993 -13.98392 88.90318 -3.752459 -2.89764 0.1243653 
41.46161 -8.17611 88.90318 3.605467 -2.431575 0.881039 
-22.79354 -11.37607 88.90318 -3.597608 -3.9837 0.3547672 
32.30013 18.12977 88.90318 5.69972 0.02816867 1.098767 
-36.30922 18.12977 88.90318 -5.701616 -1.032937 0.7329128 
41.61596 34.29021 88.90318 5.560794 -1.380419 1.030055 
-36.22014 38.01399 88.90318 -5.719277 -0.1518745 1.075501 
43.07608 40.09803 88.90318 4.899585 0.9277284 1.320144 
-37.68026 43.8218 88.90318 -5.251149 1.488455 1.532551 
39.10209 45.54843 88.90318 4.670229 2.785509 1.689835 
-33.70627 49.2722 88.90318 -4.361412 3.263944 1.858883 
36.21048 51.9817 88.90318 3.928361 3.432772 1.710678 
-27.3208 55.70547 88.90318 -2.19204 4.662531 2.029999 
25.19126 56.29747 88.90318 2.804373 4.806857 1.780621 
-22.48506 57.73984 88.90318 -2.079908 4.917762 1.859119 
15.69276 56.90809 88.90318 1.449417 5.325296 1.640866 
-13.94968 56.90809 88.90318 -0.7056246 5.619289 1.707366 
8.397069 -20.61087 140.9535 2.992 -2.888048 0.8051643 
8.397069 -11.30163 140.9535 4.55469 -2.463506 0.5911542 
-8.919993 -20.61087 140.9535 -3 -2.799841 0.981148 
-8.919993 -11.30163 140.9535 -4.338312 -2.566163 0.3136042 
15.86737 -7.210343 140.9535 3.971496 -2.657588 1.466259 
-15.90241 -7.210343 140.9535 -4.503653 -3.11984 1.179871 
18.35548 11.32074 140.9535 3.693746 2.105348 2.464199 
-19.92425 11.32074 140.9535 -4.597982 0.4995376 3.678252 
11.52721 17.55209 140.9535 2.720264 -0.4625256 4.152444 
-17.8023 17.55209 140.9535 -2.723355 0.4014516 4.178686 
12.98733 21.64339 140.9535 2.371931 0.02328759 4.396199 
-14.5561 21.64339 140.9535 -2.566017 0.7450469 4.347829 
9.013338 25.4829 140.9535 1.981539 1.457495 4.697679 
-15.28843 25.4829 140.9535 -1.845338 1.674225 4.4986 
6.121731 30.0148 140.9535 1.95562 1.445416 4.675841 
-6.644656 30.0148 140.9535 -1.756203 1.877174 4.530627 
3.544293 35.80555 140.9535 1.607383 2.048687 4.475891 
-4.067218 35.80555 140.9535 -0.9747775 2.394159 4.302836 
9.069052 38.63799 140.9535 1.190169 2.317172 3.165879 
-2.271034 38.63799 140.9535 -0.1743917 2.787682 2.060616 
8.397069 -13.10594 156.8107 1 -1.807756 2.85558 
8.397069 -11.30163 156.8107 2.64624 -0.7552243 2.109589 
-8.919993 -13.10594 156.8107 -2 -0.9038782 1.42779 
-8.919993 -11.30163 156.8107 -2.457521 -1.336981 4.296841 
10.48928 -7.210343 156.8107 2.215205 -1.57729 3.598797 
-9.44343 -7.210343 156.8107 -2.527957 -0.9917437 3.959838 
10.68592 11.32074 156.8107 1.84545 0.8663175 2.759238 
-12.08038 11.32074 156.8107 -0.8995982 1.838373 1.405709 
3 0 1 3 
3 0 3 2 
3 37 38 119 
3 37 119 118 
3 6 7 5 
3 6 5 4 
3 20 16 48 
3 20 48 50 
3 2 6 4 
3 2 4 0 
3 5 7 10 
3 5 10 11 
3 15 19 49 
3 15 49 47 
3 3 1 8 
3 3 8 9 
3 8 1 41 
3 8 41 44 
3 10 7 103 
3 10 103 105 
3 15 14 18 
3 15 18 19 
3 33 37 118 
3 33 118 116 
3 11 10 14 
3 11 14 15 
3 9 8 12 
3 9 12 13 
3 31 28 54 
3 31 54 55 
3 13 12 16 
3 13 16 17 
3 19 23 51 
3 19 51 49 
3 34 30 115 
3 34 115 117 
3 23 22 26 
3 23 26 27 
3 30 26 113 
3 30 113 115 
3 19 18 22 
3 19 22 23 
3 17 16 20 
3 17 20 21 
3 25 24 28 
3 25 28 29 
3 21 20 24 
3 21 24 25 
3 12 8 44 
3 12 44 46 
3 29 33 116 
3 29 116 114 
3 28 31 35 
3 28 35 32 
3 0 4 42 
3 0 42 40 
3 21 25 112 
3 21 112 110 
3 27 26 30 
3 27 30 31 
3 35 34 38 
3 35 38 39 
3 22 18 109 
3 22 109 111 
3 31 30 34 
3 31 34 35 
3 29 28 32 
3 29 32 33 
3 38 37 36 
3 38 36 39 
3 33 32 36 
3 33 36 37 
3 32 35 39 
3 32 39 36 
3 7 6 102 
3 7 102 103 
3 47 49 65 
3 47 65 63 
3 52 50 66 
3 52 66 68 
3 51 53 69 
3 51 69 67 
3 40 42 58 
3 40 58 56 
3 46 44 60 
3 46 60 62 
3 42 43 59 
3 42 59 58 
3 45 47 63 
3 45 63 61 
3 28 24 52 
3 28 52 54 
3 16 12 46 
3 16 46 48 
3 23 27 53 
3 23 53 51 
3 24 20 50 
3 24 50 52 
3 27 31 55 
3 27 55 53 
3 1 0 40 
3 1 40 41 
3 4 5 43 
3 4 43 42 
3 11 15 47 
3 11 47 45 
3 5 11 45 
3 5 45 43 
3 58 59 75 
3 58 75 74 
3 61 63 79 
3 61 79 77 
3 66 64 80 
3 66 80 82 
3 57 56 72 
3 57 72 73 
3 65 67 83 
3 65 83 81 
3 69 71 87 
3 69 87 85 
3 60 57 73 
3 60 73 76 
3 55 54 70 
3 55 70 71 
3 48 46 62 
3 48 62 64 
3 43 45 61 
3 43 61 59 
3 54 52 68 
3 54 68 70 
3 44 41 57 
3 44 57 60 
3 53 55 71 
3 53 71 69 
3 49 51 67 
3 49 67 65 
3 41 40 56 
3 41 56 57 
3 50 48 64 
3 50 64 66 
3 82 80 96 
3 82 96 98 
3 77 79 95 
3 77 95 93 
3 74 75 91 
3 74 91 90 
3 79 81 97 
3 79 97 95 
3 81 83 99 
3 81 99 97 
3 82 83 85 
3 82 85 84 
3 84 85 87 
3 84 87 86 
3 62 60 76 
3 62 76 78 
3 56 58 74 
3 56 74 72 
3 67 69 85 
3 67 85 83 
3 68 66 82 
3 68 82 84 
3 63 65 81 
3 63 81 79 
3 71 70 86 
3 71 86 87 
3 64 62 78 
3 64 78 80 
3 59 61 77 
3 59 77 75 
3 70 68 84 
3 70 84 86 
3 90 91 89 
3 90 89 88 
3 92 93 95 
3 92 95 94 
3 89 91 93 
3 89 93 92 
3 96 97 99 
3 96 99 98 
3 94 95 97 
3 94 97 96 
3 75 77 93 
3 75 93 91 
3 80 78 94 
3 80 94 96 
3 72 74 90 
3 72 90 88 
3 78 76 92 
3 78 92 94 
3 76 73 89 
3 76 89 92 
3 83 82 98 
3 83 98 99 
3 73 72 88 
3 73 88 89 
3 105 103 123 
3 105 123 125 
3 116 118 138 
3 116 138 136 
3 106 108 128 
3 106 128 126 
3 119 117 137 
3 119 137 139 
3 109 107 127 
3 109 127 129 
3 110 112 132 
3 110 132 130 
3 103 102 122 
3 103 122 123 
3 118 119 139 
3 118 139 138 
3 113 111 131 
3 113 131 133 
3 18 14 107 
3 18 107 109 
3 2 3 101 
3 2 101 100 
3 26 22 111 
3 26 111 113 
3 9 13 106 
3 9 106 104 
3 6 2 100 
3 6 100 102 
3 3 9 104 
3 3 104 101 
3 14 10 105 
3 14 105 107 
3 17 21 110 
3 17 110 108 
3 25 29 114 
3 25 114 112 
3 38 34 117 
3 38 117 119 
3 13 17 108 
3 13 108 106 
3 133 131 151 
3 133 151 153 
3 137 135 155 
3 137 155 157 
3 127 125 145 
3 127 145 147 
3 122 120 140 
3 122 140 142 
3 134 136 156 
3 134 156 154 
3 124 126 146 
3 124 146 144 
3 131 129 149 
3 131 149 151 
3 120 121 141 
3 120 141 140 
3 128 130 150 
3 128 150 148 
3 112 114 134 
3 112 134 132 
3 101 104 124 
3 101 124 121 
3 115 113 133 
3 115 133 135 
3 108 110 130 
3 108 130 128 
3 100 101 121 
3 100 121 120 
3 111 109 129 
3 111 129 131 
3 104 106 126 
3 104 126 124 
3 114 116 136 
3 114 136 134 
3 102 100 120 
3 102 120 122 
3 107 105 125 
3 107 125 127 
3 117 115 135 
3 117 135 137 
3 140 141 161 
3 140 161 160 
3 141 144 164 
3 141 164 161 
3 144 146 166 
3 144 166 164 
3 147 146 148 
3 147 148 149 
3 149 148 150 
3 149 150 151 
3 151 150 152 
3 151 152 153 
3 153 152 154 
3 153 154 155 
3 155 154 156 
3 155 156 157 
3 157 156 158 
3 157 158 159 
3 138 139 159 
3 138 159 158 
3 123 122 142 
3 123 142 143 
3 130 132 152 
3 130 152 150 
3 129 127 147 
3 129 147 149 
3 139 137 157 
3 139 157 159 
3 126 128 148 
3 126 148 146 
3 136 138 158 
3 136 158 156 
3 125 123 143 
3 125 143 145 
3 132 134 154 
3 132 154 152 
3 121 124 144 
3 121 144 141 
3 135 133 153 
3 135 153 155 
3 160 161 163 
3 160 163 162 
3 163 161 164 
3 163 164 165 
3 165 164 166 
3 165 166 167 
3 147 145 165 
3 147 165 167 
3 146 147 167 
3 146 167 166 
3 145 143 163 
3 145 163 165 
3 143 142 162 
3 143 162 163 
3 142 140 160 
3 142 160 162 
