ply
format ascii 1.0
comment Created in Blender version 3.6.2
element vertex 42
property float x
property float y
property float z
property float nx
property float ny
property float nz
property uchar red
property uchar green
property uchar blue
property uchar alpha
element face 80
property list uchar uint vertex_indices
end_header
0 0 -2.5 -5.418841e-07 -2.1024715e-09 -0.4 119 60 66 255
1.9021116 -1.3143134 -1.1180488 0.2752771 -0.21029072 -0.17888685 120 60 69 255
-0.72652787 -2.1266234 -1.1180496 -0.10514486 -0.3402598 -0.17888735 236 44 192 255
-2.3511353 0 -1.118039 -0.3402605 0 -0.1788861 230 178 51 255
-0.72652787 2.1266234 -1.1180496 -0.10514486 0.3402598 -0.17888737 103 209 214 255
1.9021116 1.3143134 -1.1180488 0.2752771 0.21029069 -0.17888688 119 78 82 255
0.72652787 -2.1266234 1.1180496 0.10514485 -0.3402598 0.17888737 254 0 4 255
-1.9021116 -1.3143134 1.1180488 -0.2752771 -0.21029072 0.17888688 201 154 59 255
-1.9021116 1.3143134 1.1180488 -0.2752771 0.21029072 0.17888688 13 64 254 255
0.72652787 2.1266234 1.1180496 0.105144836 0.3402598 0.17888737 119 60 66 255
2.3511353 0 1.118039 0.3402605 0 0.17888609 115 64 165 255
0 0 2.5 5.438837e-07 -1.0512358e-09 0.4 36 254 0 255
-0.42703912 -1.2499883 -2.126636 -0.061802402 -0.19999853 -0.34026143 254 0 208 255
1.1180253 -0.7725286 -2.1266356 0.1618029 -0.123605184 -0.3402613 254 0 208 255
0.6909906 -2.0225294 -1.3143442 0.100001425 -0.3236052 -0.21029416 254 12 208 255
2.236057 0 -1.3143398 0.3236065 4.244681e-09 -0.21029375 119 60 72 255
1.1180253 0.7725286 -2.1266356 0.16180289 0.123605184 -0.3402613 6 249 254 255
-1.3819605 0 -2.126629 -0.19999972 -2.1223405e-09 -0.3402607 253 197 24 255
-1.8090103 -1.2499925 -1.3143406 -0.26180318 -0.1999995 -0.2102937 119 60 66 255
-0.42703912 1.2499883 -2.126636 -0.061802402 0.19999853 -0.34026143 119 93 96 255
-1.8090103 1.2499925 -1.3143406 -0.26180318 0.19999947 -0.2102937 124 72 65 255
0.6909906 2.0225294 -1.3143442 0.100001425 0.3236052 -0.21029413 1 249 254 255
2.5 -0.7725316 0 0.36180413 -0.123606056 -8.2771415e-08 52 80 254 255
2.5 0.7725316 0 0.3618041 0.12360607 -8.489376e-08 57 80 254 255
0 -2.5 0 2.018474e-09 -0.39999995 -2.1223465e-09 254 0 4 255
1.5450838 -2.022542 0 0.22360739 -0.32360655 8.06492e-08 119 60 66 255
-2.5 -0.7725316 0 -0.36180413 -0.12360607 9.338313e-08 254 198 0 255
-1.5450838 -2.022542 0 -0.22360739 -0.32360655 -9.5505634e-08 226 48 184 255
-1.5450838 2.022542 0 -0.22360738 0.32360655 -1.0505618e-07 13 64 254 255
-2.5 0.7725316 0 -0.3618041 0.12360607 9.1260794e-08 254 198 0 255
1.5450838 2.022542 0 0.22360742 0.32360655 7.322098e-08 8 249 254 255
0 2.5 0 -3.7846393e-09 0.39999995 -1.2734079e-08 37 248 254 255
1.8090103 -1.2499925 1.3143406 0.26180315 -0.1999995 0.2102937 52 80 254 255
-0.6909906 -2.0225294 1.3143442 -0.100001425 -0.32360518 0.21029416 254 3 6 255
-2.236057 0 1.3143398 -0.3236065 -6.367021e-09 0.21029373 254 198 0 255
-0.6909906 2.0225294 1.3143442 -0.100001425 0.3236052 0.21029416 13 64 254 255
1.8090103 1.2499925 1.3143406 0.26180315 0.1999995 0.2102937 119 60 66 255
0.42703912 -1.2499883 2.126636 0.061802406 -0.19999854 0.34026137 254 24 47 255
1.3819605 0 2.126629 0.19999972 -1.0611704e-09 0.34026068 113 176 62 255
-1.1180253 -0.7725286 2.1266356 -0.16180289 -0.123605184 0.3402613 119 60 66 255
-1.1180253 0.7725286 2.1266356 -0.16180286 0.123605184 0.3402613 53 253 24 255
0.42703912 1.2499883 2.126636 0.061802395 0.19999853 0.3402614 36 254 0 255
3 0 13 12
3 1 13 15
3 0 12 17
3 0 17 19
3 0 19 16
3 1 15 22
3 2 14 24
3 3 18 26
3 4 20 28
3 5 21 30
3 1 22 25
3 2 24 27
3 3 26 29
3 4 28 31
3 5 30 23
3 6 32 37
3 7 33 39
3 8 34 40
3 9 35 41
3 10 36 38
3 38 41 11
3 38 36 41
3 36 9 41
3 41 40 11
3 41 35 40
3 35 8 40
3 40 39 11
3 40 34 39
3 34 7 39
3 39 37 11
3 39 33 37
3 33 6 37
3 37 38 11
3 37 32 38
3 32 10 38
3 23 36 10
3 23 30 36
3 30 9 36
3 31 35 9
3 31 28 35
3 28 8 35
3 29 34 8
3 29 26 34
3 26 7 34
3 27 33 7
3 27 24 33
3 24 6 33
3 25 32 6
3 25 22 32
3 22 10 32
3 30 31 9
3 30 21 31
3 21 4 31
3 28 29 8
3 28 20 29
3 20 3 29
3 26 27 7
3 26 18 27
3 18 2 27
3 24 25 6
3 24 14 25
3 14 1 25
3 22 23 10
3 22 15 23
3 15 5 23
3 16 21 5
3 16 19 21
3 19 4 21
3 19 20 4
3 19 17 20
3 17 3 20
3 17 18 3
3 17 12 18
3 12 2 18
3 15 16 5
3 15 13 16
3 13 0 16
3 12 14 2
3 12 13 14
3 13 1 14
