ply
format ascii 1.0
comment VCGLIB generated
element vertex 8
property float x
property float y
property float z
property float nx
property float ny
property float nz
property uchar red
property uchar green
property uchar blue
property uchar alpha
element face 12
property list uchar int vertex_indices
end_header
20 -1 -20 2 -1 -1 67 110 132 255 
20 1 -20 1 2 -2 67 110 132 255 
20 -1 20 1 -2 2 67 110 132 255 
20 1 20 2 1 1 67 110 132 255 
-20 -1 -20 -1 -2 -2 67 110 132 255 
-20 1 -20 -2 1 -1 67 110 132 255 
-20 -1 20 -2 -1 1 67 110 132 255 
-20 1 20 -1 2 2 67 110 132 255 
3 0 1 3 
3 0 3 2 
3 2 3 7 
3 2 7 6 
3 6 7 5 
3 6 5 4 
3 4 5 1 
3 4 1 0 
3 2 6 4 
3 2 4 0 
3 7 3 1 
3 7 1 5 
