ply
format ascii 1.0
comment VCGLIB generated
element vertex 6
property float x
property float y
property float z
property float nx
property float ny
property float nz
property uchar red
property uchar green
property uchar blue
property uchar alpha
element face 8
property list uchar int vertex_indices
end_header
3 0 -3 36 -1 -1 135 157 72 255 
3 6 -3 36 0.7071068 -1.292893 135 157 72 255 
3 0 3 36 -0.5857865 1.414214 135 157 72 255 
-3 0 -3 -36 -2 -2 135 157 72 255 
-3 6 -3 -36 1.414214 0.4142135 135 157 72 255 
-3 0 3 -36 -0.2928932 0.7071068 135 157 72 255 
3 2 1 4 
3 2 4 5 
3 0 1 2 
3 3 5 4 
3 3 4 1 
3 3 1 0 
3 2 5 3 
3 2 3 0 
